<?xml version="1.0" encoding="UTF-8"?>
<svg width="60px" height="30px" viewBox="0 0 60 30" version="1.1" xmlns="http://www.w3.org/2000/svg" xmlns:xlink="http://www.w3.org/1999/xlink">
    <title>ico_nav</title>
    <g id="ico_nav" stroke="none" stroke-width="1" fill="none" fill-rule="evenodd">
        <path d="M10.8571429,3.14285714 L10.8571429,14 L3.14285714,14 L3.14285714,11.7391183 L8.55691964,11.7391183 L8.55691964,3.14285714 L10.8571429,3.14285714 Z M7.71428571,0 L7.71428571,10.8571429 L0,10.8571429 L0,0 L7.71428571,0 Z" id="ico-cart" fill="#000000"></path>
        <path d="M37,0 C39.3894491,0 40.8283817,1.52234157 41.2744824,4.3742631 L44,4.375 L43.106383,14 L30.893617,14 L30,4.375 L32.7254144,4.37492289 C33.1713964,1.52257636 34.6103666,0 37,0 Z M37,1.17215716 C35.306612,1.17215716 34.289732,2.18175493 33.9112592,4.37451315 L40.0886783,4.37415092 C39.710156,2.18164375 38.6932948,1.17215716 37,1.17215716 Z" id="ico-compare" fill="#000000"></path>
    </g>
</svg>