<?xml version="1.0" encoding="UTF-8"?>
<svg width="75px" height="15px" viewBox="0 0 75 15" version="1.1" xmlns="http://www.w3.org/2000/svg" xmlns:xlink="http://www.w3.org/1999/xlink">
    <title>logo</title>
    <g id="Page-1" stroke="none" stroke-width="1" fill="none" fill-rule="evenodd">
        <g id="Group-Copy" transform="translate(-14.876953, -30.000000)" fill="#000000" fill-rule="nonzero">
            <path d="M53.5586635,30.2197266 L56.1432423,39.3234922 L58.4289957,30.2197266 L61.2669784,30.2197266 L57.3548743,44.1044922 L54.8833716,44.1044922 L52.0805266,34.2474922 L49.2617638,44.1044922 L46.688228,44.1044922 L43.4875848,32.3674922 L43.4882029,32.7402344 L39.1073731,32.7404922 L39.1083043,44.1044922 L36.3288497,44.1044922 L36.3279988,32.7404922 L31.9670125,32.7402344 L31.9670125,30.2197266 L45.7757789,30.2197266 L47.984931,39.4974922 L50.6679731,30.2197266 L53.5586635,30.2197266 Z M20.5692418,30 C21.6161835,30 22.5491584,30.1658103 23.3651918,30.5007126 C24.2061972,30.8458635 24.8634588,31.3619449 25.324353,32.0448288 C25.7292152,32.6446928 25.9678092,33.3158858 26.0394795,34.0514175 L26.05853,34.3302441 L26.0777166,34.812012 L23.4220548,35.0065517 L23.3252203,34.3169198 C23.2248095,33.7336649 22.9904213,33.3070363 22.6228873,33.0134336 C22.205932,32.680351 21.5499103,32.5029297 20.6414876,32.5029297 C19.6879254,32.5029297 19.0242126,32.6653621 18.6463473,32.9600221 C18.2792532,33.2462826 18.1118829,33.5609366 18.1118829,33.9365234 C18.1118829,34.258456 18.2222325,34.503396 18.4588077,34.7094304 C18.6235707,34.855467 19.0459677,35.0319191 19.7048,35.2204107 L20.128302,35.3348035 C20.2035579,35.3540608 20.2811357,35.3734016 20.3610142,35.3928078 L21.4641091,35.6449015 L22.0054052,35.7753079 L22.4920229,35.9013036 L22.9243716,36.0230924 C22.99193,36.0430513 23.0572444,36.0628433 23.1203231,36.0824728 L23.4720361,36.1983328 C23.6345472,36.2553213 23.7770913,36.310923 23.8998988,36.3652525 C24.7510282,36.7470718 25.393904,37.2419823 25.8176556,37.8538398 C26.2433283,38.4684713 26.4562671,39.1768267 26.4562671,39.9658203 C26.4562671,40.7491597 26.225209,41.489234 25.7687326,42.1755183 C25.3105939,42.8643018 24.6549232,43.3980066 23.8130393,43.7734086 C22.9879562,44.141319 22.0646549,44.3242188 21.0478699,44.3242188 C19.7843347,44.3242188 18.7123943,44.1427829 17.8326923,43.7735831 C16.9318563,43.3955135 16.2176757,42.8206811 15.7012052,42.0552075 C15.238853,41.369944 14.9733306,40.6028342 14.9054273,39.7615929 L14.8901131,39.4784442 L14.8769531,39.0077558 L17.4969991,38.7848106 L17.5974216,39.4791984 C17.6772241,39.9505279 17.8223897,40.3332265 18.0287147,40.6312618 C18.2560124,40.9595919 18.6222288,41.2350598 19.1396124,41.4540991 C19.6745814,41.6805834 20.2822481,41.7949219 20.9665934,41.7949219 C21.5741181,41.7949219 22.1014755,41.7085081 22.5506804,41.5387776 C22.9752141,41.3783691 23.274922,41.1696912 23.4624203,40.9168561 C23.6497977,40.6641841 23.7400275,40.3986219 23.7400275,40.1064453 C23.7400275,39.8115678 23.6565164,39.5667226 23.4868066,39.3540681 C23.3110532,39.1338408 22.990666,38.9295083 22.5138941,38.7529634 L22.3470672,38.6949996 L22.1260307,38.6271249 L21.6938224,38.5070917 L20.9320317,38.3139021 L20.2235323,38.1448741 C18.968349,37.8515703 18.082362,37.5727771 17.5493979,37.297408 C16.8410276,36.9362859 16.3013641,36.4781845 15.9401683,35.9218792 C15.5775616,35.3634007 15.3956433,34.7359895 15.3956433,34.0507812 C15.3956433,33.3023296 15.6148572,32.5996363 16.0481388,31.9537184 C16.4861246,31.3007878 17.1225692,30.8076133 17.9437772,30.4773517 C18.736546,30.1585274 19.6128735,30 20.5692418,30 Z M30.8993808,30.2197266 L30.8993808,44.1044922 L28.1199262,44.1044922 L28.1199262,30.2197266 L30.8993808,30.2197266 Z M64.7916688,30.2197266 L64.7916688,44.1044922 L62.0122142,44.1044922 L62.0122142,30.2197266 L64.7916688,30.2197266 Z M77.3804909,30.2197266 L77.3804909,32.7402344 L73.0003274,32.7404922 L73.0005923,44.1044922 L70.2211377,44.1044922 L70.220953,32.7404922 L65.8593005,32.7402344 L65.8593005,30.2197266 L77.3804909,30.2197266 Z M80.9837478,30.2197266 L80.982937,35.5114922 L86.8376042,35.5114922 L86.8376604,30.2197266 L89.617115,30.2197266 L89.617115,44.1044922 L86.8376604,44.1044922 L86.8376042,38.0314922 L80.982937,38.0314922 L80.9837478,44.1044922 L78.2042932,44.1044922 L78.2042932,30.2197266 L80.9837478,30.2197266 Z" id="logo"></path>
        </g>
    </g>
</svg>