<?xml version="1.0" encoding="UTF-8"?>
<svg width="75px" height="15px" viewBox="0 0 75 15" version="1.1" xmlns="http://www.w3.org/2000/svg" xmlns:xlink="http://www.w3.org/1999/xlink">
    <title>logo</title>
    <g id="Page-1" stroke="none" stroke-width="1" fill="none" fill-rule="evenodd">
        <g id="logo" transform="translate(-0.000000, 0.000000)" fill="#000000" fill-rule="nonzero">
            <path d="M38.6817104,0.2197266 L41.2662892,9.3234922 L43.5520426,0.2197266 L46.3900253,0.2197266 L42.4779212,14.1044922 L40.0064185,14.1044922 L37.2035735,4.2474922 L34.3848107,14.1044922 L31.8112749,14.1044922 L28.6106317,2.3674922 L28.6112498,2.7402344 L24.23042,2.7404922 L24.2313512,14.1044922 L21.4518966,14.1044922 L21.4510457,2.7404922 L17.0900594,2.7402344 L17.0900594,0.2197266 L30.8988258,0.2197266 L33.1079779,9.4974922 L35.79102,0.2197266 L38.6817104,0.2197266 Z M5.6922887,0 C6.7392304,0 7.6722053,0.1658103 8.4882387,0.5007126 C9.3292441,0.8458635 9.9865057,1.3619449 10.4473999,2.0448288 C10.8522621,2.6446928 11.0908561,3.3158858 11.1625264,4.0514175 L11.1815769,4.3302441 L11.2007635,4.812012 L8.5451017,5.0065517 L8.4482672,4.3169198 C8.3478564,3.7336649 8.1134682,3.3070363 7.7459342,3.0134336 C7.3289789,2.680351 6.6729572,2.5029297 5.7645345,2.5029297 C4.8109723,2.5029297 4.1472595,2.6653621 3.7693942,2.9600221 C3.4023001,3.2462826 3.2349298,3.5609366 3.2349298,3.9365234 C3.2349298,4.258456 3.3452794,4.503396 3.5818546,4.7094304 C3.7466176,4.855467 4.1690146,5.0319191 4.8278469,5.2204107 L5.2513489,5.3348035 C5.3266048,5.3540608 5.4041826,5.3734016 5.4840611,5.3928078 L6.587156,5.6449015 L7.1284521,5.7753079 L7.6150698,5.9013036 L8.0474185,6.0230924 C8.1149769,6.0430513 8.1802913,6.0628433 8.24337,6.0824728 L8.595083,6.1983328 C8.7575941,6.2553213 8.9001382,6.310923 9.0229457,6.3652525 C9.8740751,6.7470718 10.5169509,7.2419823 10.9407025,7.8538398 C11.3663752,8.4684713 11.579314,9.1768267 11.579314,9.9658203 C11.579314,10.7491597 11.3482559,11.489234 10.8917795,12.1755183 C10.4336408,12.8643018 9.7779701,13.3980066 8.9360862,13.7734086 C8.1110031,14.141319 7.1877018,14.3242188 6.1709168,14.3242188 C4.9073816,14.3242188 3.8354412,14.1427829 2.9557392,13.7735831 C2.0549032,13.3955135 1.3407226,12.8206811 0.8242521,12.0552075 C0.3618999,11.369944 0.0963775,10.6028342 0.0284742,9.7615929 L0.01316,9.4784442 L0,9.0077558 L2.620046,8.7848106 L2.7204685,9.4791984 C2.800271,9.9505279 2.9454366,10.3332265 3.1517616,10.6312618 C3.3790593,10.9595919 3.7452757,11.2350598 4.2626593,11.4540991 C4.7976283,11.6805834 5.405295,11.7949219 6.0896403,11.7949219 C6.697165,11.7949219 7.2245224,11.7085081 7.6737273,11.5387776 C8.098261,11.3783691 8.3979689,11.1696912 8.5854672,10.9168561 C8.7728446,10.6641841 8.8630744,10.3986219 8.8630744,10.1064453 C8.8630744,9.8115678 8.7795633,9.5667226 8.6098535,9.3540681 C8.4341001,9.1338408 8.1137129,8.9295083 7.636941,8.7529634 L7.4701141,8.6949996 L7.2490776,8.6271249 L6.8168693,8.5070917 L6.0550786,8.3139021 L5.3465792,8.1448741 C4.0913959,7.8515703 3.2054089,7.5727771 2.6724448,7.297408 C1.9640745,6.9362859 1.424411,6.4781845 1.0632152,5.9218792 C0.7006085,5.3634007 0.5186902,4.7359895 0.5186902,4.0507812 C0.5186902,3.3023296 0.7379041,2.5996363 1.1711857,1.9537184 C1.6091715,1.3007878 2.2456161,0.8076133 3.0668241,0.4773517 C3.8595929,0.1585274 4.7359204,0 5.6922887,0 Z M16.0224277,0.2197266 L16.0224277,14.1044922 L13.2429731,14.1044922 L13.2429731,0.2197266 L16.0224277,0.2197266 Z M49.9147157,0.2197266 L49.9147157,14.1044922 L47.1352611,14.1044922 L47.1352611,0.2197266 L49.9147157,0.2197266 Z M62.5035378,0.2197266 L62.5035378,2.7402344 L58.1233743,2.7404922 L58.1236392,14.1044922 L55.3441846,14.1044922 L55.3439999,2.7404922 L50.9823474,2.7402344 L50.9823474,0.2197266 L62.5035378,0.2197266 Z M66.1067947,0.2197266 L66.1059839,5.5114922 L71.9606511,5.5114922 L71.9607073,0.2197266 L74.7401619,0.2197266 L74.7401619,14.1044922 L71.9607073,14.1044922 L71.9606511,8.0314922 L66.1059839,8.0314922 L66.1067947,14.1044922 L63.3273401,14.1044922 L63.3273401,0.2197266 L66.1067947,0.2197266 Z"></path>
        </g>
    </g>
</svg>